<?xml version='1.0' encoding='UTF-8'?>
<svg xmlns="http://www.w3.org/2000/svg" version="1.1" width="1024" height="694">
<defs><linearGradient id="brand-gradient" x1="0%" y1="0%" x2="100%" y2="0%"><stop offset="0%" stop-color="#10b981" /><stop offset="100%" stop-color="#3b82f6" /></linearGradient></defs><path d="M0 0 C3.828 0.034 3.828 0.034 6.125 2.188 C7.125 4.312 7.125 4.312 7.125 6.312 C7.764 6.56 8.404 6.808 9.062 7.062 C11.125 8.312 11.125 8.312 11.875 10.438 C11.916 10.747 11.916 10.747 12.125 12.312 C12.785 12.312 13.445 12.312 14.125 12.312 C15.93 14.289 15.93 14.289 18 16.938 C18.714 17.85 19.428 18.763 20.164 19.703 C21.641 21.669 23.045 23.623 24.375 25.688 C26.094 28.266 27.908 30.162 30.125 32.312 C35.125 37.714 35.125 37.714 35.125 41.312 C35.712 41.552 36.298 41.792 36.902 42.039 C39.567 43.565 40.862 45.229 42.688 47.688 C43.266 48.458 43.845 49.229 44.441 50.023 C44.997 50.779 45.553 51.534 46.125 52.312 C46.691 53.027 47.257 53.741 47.84 54.477 C49.125 56.312 49.125 56.312 49.125 58.312 C50.115 58.642 51.105 58.972 52.125 59.312 C52.792 60.646 53.458 61.979 54.125 63.312 C54.482 63.661 54.482 63.661 56.289 65.426 C59.816 68.874 62.674 72.81 65.625 76.75 C66.738 78.229 67.853 79.707 68.969 81.184 C69.499 81.886 70.028 82.588 70.574 83.312 C72.011 85.165 73.501 86.947 75.031 88.723 C77.125 91.312 77.125 91.312 77.125 93.312 C77.695 93.526 78.265 93.74 78.852 93.961 C81.913 95.781 83.421 98.056 85.5 100.938 C85.891 101.474 86.283 102.01 86.686 102.562 C87.838 104.141 88.982 105.727 90.125 107.312 C91.246 108.837 92.37 110.358 93.5 111.875 C93.941 112.474 94.382 113.074 94.836 113.691 C96.125 115.312 96.125 115.312 97.535 116.723 C99.575 118.762 101.362 120.954 103.188 123.188 C103.985 124.161 104.783 125.134 105.605 126.137 C107.318 128.264 108.954 130.429 110.551 132.645 C115.873 139.982 121.36 145.481 129.125 150.312 C129.84 150.792 130.556 151.272 131.293 151.766 C143.359 159.281 156.818 159.885 170.562 159.562 C172.084 159.542 173.605 159.524 175.127 159.508 C178.794 159.464 182.459 159.396 186.125 159.312 C177.351 140.641 168.516 122 159.602 103.395 C158.056 100.169 156.512 96.942 154.969 93.715 C153.917 91.518 152.865 89.322 151.812 87.125 C151.333 86.123 150.854 85.12 150.36 84.087 C147.439 77.994 144.451 71.938 141.402 65.907 C140.34 63.75 139.359 61.594 138.438 59.375 C137.125 56.312 137.125 56.312 135.688 54 C133.795 50.745 132.528 47.381 131.172 43.875 C130.204 41.505 129.123 39.268 127.938 37 C126.038 33.269 124.686 30.29 125.625 26.062 C127.125 24.313 127.125 24.313 130.188 22.938 C135.9 23.482 137.818 26.652 141.402 30.895 C143.125 33.312 143.125 33.312 143.125 35.312 C143.785 35.312 144.445 35.312 145.125 35.312 C148.125 38.774 148.125 38.774 148.125 41.312 C149.115 41.642 150.105 41.972 151.125 42.312 C151.197 42.632 151.197 42.632 151.562 44.25 C151.748 44.931 151.934 45.611 152.125 46.312 C152.785 46.642 153.445 46.972 154.125 47.312 C154.785 47.642 155.445 47.972 156.125 48.312 C156.458 49.646 156.792 50.979 157.125 52.312 C157.693 52.556 158.262 52.8 158.848 53.051 C162.085 54.844 163.895 57.585 166.062 60.5 C170.092 65.775 174.253 70.881 178.625 75.875 C179.172 76.501 179.719 77.127 180.282 77.772 C181.373 79.019 182.463 80.265 183.554 81.512 C190.217 89.148 196.645 96.928 202.855 104.935 C206.354 109.411 210.012 113.723 213.75 118 C217.67 122.485 221.57 126.979 225.375 131.562 C226.081 132.413 226.788 133.264 227.516 134.141 C229.125 136.312 229.125 136.312 230.125 139.312 C230.785 139.312 231.445 139.312 232.125 139.312 C232.62 139.993 233.115 140.674 233.625 141.375 C237.203 145.579 241.532 148.304 246.125 151.312 C247.177 152.034 248.229 152.756 249.312 153.5 C260.29 159.443 272.903 159.943 285.062 160.062 C286.536 160.091 288.009 160.121 289.482 160.152 C293.03 160.225 296.577 160.275 300.125 160.312 C299.883 159.834 299.883 159.834 298.656 157.41 C292.78 145.755 287.197 133.98 281.732 122.126 C280.572 119.609 279.409 117.093 278.246 114.577 C277.393 112.726 276.543 110.873 275.693 109.021 C273.049 103.295 270.34 97.737 267.125 92.312 C266.392 90.656 265.661 88.998 264.969 87.324 C261.622 79.345 257.937 71.48 253.801 63.879 C251.002 58.611 249.021 54.346 249.125 48.312 C250.75 45.75 250.75 45.75 253.125 44.312 C256.311 44.312 257.697 44.951 260.125 47 C262.027 49.199 263.914 51.408 265.754 53.66 C267.772 56.092 269.882 58.442 271.988 60.797 C273.125 62.312 273.125 62.312 273.125 64.312 C274.115 64.642 275.105 64.972 276.125 65.312 C277.312 67.875 277.312 67.875 278.125 70.312 C278.785 70.312 279.445 70.312 280.125 70.312 C281.613 71.973 281.613 71.973 283.438 74.375 C287.011 78.962 290.734 83.374 294.562 87.75 C300.382 94.423 306.018 101.221 311.577 108.112 C339.129 142.247 339.129 142.247 351.125 150.312 C351.777 150.755 352.43 151.197 353.102 151.652 C364.785 158.851 377.876 159.977 391.241 159.834 C393.624 159.813 396.004 159.834 398.387 159.859 C415.03 159.892 429.094 156.47 442.172 145.613 C447.511 140.164 450.694 132.977 454.109 126.238 C457.606 119.415 457.606 119.415 459.125 117.312 C462.625 116.812 462.625 116.812 466.125 117.312 C467.815 118.599 467.815 118.599 469.125 120.312 C469.487 123.387 469.661 126.276 469.715 129.359 C469.744 130.316 469.773 131.273 469.803 132.259 C469.868 134.387 469.925 136.515 469.978 138.643 C470.128 144.69 470.328 150.736 470.523 156.781 C470.544 157.447 470.565 158.112 470.587 158.797 C470.978 171.131 471.518 183.455 472.102 195.781 C472.146 196.715 472.19 197.648 472.235 198.61 C472.636 207.086 473.04 215.561 473.455 224.036 C474.518 245.836 475.376 267.622 475.819 289.445 C475.998 298.283 476.236 307.108 476.688 315.938 C476.838 319.062 476.985 322.187 477.125 325.312 C477.143 325.705 477.143 325.705 477.232 327.692 C477.324 329.961 477.386 332.229 477.438 334.5 C477.475 335.752 477.512 337.003 477.551 338.293 C477.125 341.313 477.125 341.313 475.266 343.238 C473.125 344.312 473.125 344.312 470.562 344.312 C467.182 342.926 466.727 341.616 465.125 338.312 C464.149 334.891 463.45 331.425 462.75 327.938 C462.318 325.871 461.886 323.805 461.453 321.738 C461.344 321.208 461.344 321.208 460.791 318.526 C459.726 313.385 458.615 308.255 457.5 303.125 C457.29 302.156 457.08 301.187 456.864 300.188 C455.629 294.514 454.309 288.873 452.853 283.251 C452.079 280.128 451.394 276.995 450.727 273.848 C450.464 272.615 450.202 271.383 449.932 270.114 C449.799 269.486 449.799 269.486 449.125 266.312 C448.626 263.979 448.126 261.646 447.625 259.312 C446.625 254.646 445.625 249.979 444.625 245.312 C444.379 244.167 444.133 243.022 443.88 241.841 C443.36 239.413 442.843 236.983 442.329 234.553 C442.07 233.332 441.81 232.11 441.543 230.852 C441.311 229.755 441.079 228.659 440.841 227.53 C439.893 223.269 438.802 219.052 437.676 214.836 C437.125 212.313 437.125 212.313 437.125 208.312 C436.479 208.314 435.832 208.316 435.166 208.317 C396.82 208.407 358.474 208.475 320.128 208.517 C315.519 208.522 310.911 208.527 306.302 208.532 C305.385 208.533 304.467 208.534 303.522 208.535 C288.684 208.553 273.847 208.584 259.009 208.621 C243.774 208.659 228.539 208.681 213.304 208.689 C203.91 208.694 194.516 208.712 185.122 208.744 C178.673 208.765 172.223 208.772 165.774 208.767 C162.058 208.764 158.342 208.768 154.626 208.789 C150.584 208.813 146.543 208.804 142.501 208.794 C141.344 208.805 140.186 208.817 138.993 208.829 C119.734 208.689 99.76 200.075 85.625 187 C84.8 186.113 83.975 185.226 83.125 184.312 C82.603 183.807 82.081 183.302 81.543 182.781 C75.778 176.848 72.62 169.788 69.124 162.402 C67.896 159.833 66.614 157.293 65.326 154.753 C59.918 144.076 54.787 133.263 49.63 122.463 C48.179 119.427 46.727 116.391 45.273 113.355 C44.39 111.508 43.508 109.66 42.625 107.812 C42.228 106.983 41.831 106.154 41.422 105.3 C39.602 101.482 37.828 97.655 36.141 93.777 C34.113 89.18 31.768 84.79 29.375 80.375 C26.006 74.079 22.891 67.744 20.062 61.188 C16.509 52.96 12.409 45.109 8.15 37.229 C4.492 30.392 1.126 23.459 -1.875 16.312 C-2.153 15.838 -2.153 15.838 -3.562 13.438 C-5.273 9.364 -5.353 5.683 -4.875 1.312 C-3.875 0.312 -3.875 0.312 0 0 Z " fill="url(#brand-gradient)" transform="translate(4.875,-0.3125)" />
<path d="M0 0 C3.688 0.5 3.688 0.5 4.688 1.5 C6.109 10.501 1.834 17.004 -2.326 24.671 C-3.541 26.923 -4.683 29.205 -5.812 31.5 C-7.21 34.304 -8.619 37.1 -10.043 39.891 C-13.988 47.653 -17.693 55.49 -21.25 63.438 C-24.683 71.103 -28.322 78.592 -32.357 85.959 C-34.223 89.373 -35.889 92.774 -37.385 96.371 C-39.409 101.016 -41.68 105.551 -43.893 110.108 C-45.466 113.346 -47.033 116.587 -48.602 119.828 C-48.917 120.479 -49.232 121.131 -49.557 121.802 C-52.449 127.777 -55.323 133.761 -58.188 139.75 C-58.411 140.216 -58.411 140.216 -59.54 142.573 C-61.559 146.797 -63.563 151.026 -65.523 155.277 C-76.131 178.264 -76.131 178.264 -83.312 184.5 C-84.014 185.263 -84.715 186.026 -85.438 186.812 C-98.249 198.788 -116.809 208.63 -134.738 208.623 C-135.821 208.625 -136.904 208.627 -138.019 208.629 C-139.203 208.626 -140.387 208.623 -141.607 208.62 C-142.238 208.621 -142.238 208.621 -145.431 208.623 C-148.931 208.625 -152.432 208.621 -155.932 208.616 C-159.708 208.612 -163.483 208.613 -167.259 208.614 C-173.8 208.614 -180.341 208.611 -186.881 208.606 C-196.338 208.598 -205.795 208.595 -215.252 208.594 C-230.595 208.592 -245.938 208.585 -261.281 208.575 C-276.186 208.566 -291.091 208.559 -305.995 208.555 C-306.914 208.555 -307.833 208.554 -308.779 208.554 C-313.388 208.553 -317.997 208.552 -322.605 208.55 C-360.841 208.54 -399.077 208.522 -437.312 208.5 C-437.444 209.231 -437.575 209.962 -437.71 210.715 C-437.885 211.687 -438.06 212.659 -438.241 213.66 C-438.413 214.618 -438.585 215.576 -438.763 216.563 C-439.636 221.231 -440.661 225.864 -441.688 230.5 C-443.311 237.888 -444.901 245.281 -446.438 252.688 C-447.483 257.718 -448.585 262.713 -449.875 267.688 C-451.242 272.964 -452.224 278.289 -453.188 283.649 C-454.058 288.394 -455.224 292.965 -456.562 297.594 C-457.669 301.882 -458.408 306.232 -459.185 310.589 C-460.068 315.438 -461.245 320.112 -462.637 324.836 C-463.398 327.837 -463.788 330.806 -464.188 333.875 C-464.749 337.444 -465.191 340.076 -467.625 342.812 C-470.312 344.5 -470.312 344.5 -473 344.438 C-475.312 343.5 -475.312 343.5 -477.312 341.5 C-477.492 338.692 -477.545 335.995 -477.5 333.188 C-477.493 332.329 -477.486 331.47 -477.478 330.584 C-477.398 324.031 -477.102 317.497 -476.742 310.954 C-476.436 305.054 -476.242 299.157 -476.127 293.25 C-475.583 265.649 -474.351 238.1 -472.984 210.529 C-472.528 201.327 -472.077 192.124 -471.632 182.922 C-471.524 180.697 -471.415 178.473 -471.305 176.248 C-470.772 165.418 -470.272 154.595 -470.039 143.753 C-470.021 142.939 -470.002 142.125 -469.983 141.287 C-469.902 137.583 -469.837 133.88 -469.804 130.176 C-469.782 128.924 -469.759 127.672 -469.736 126.383 C-469.726 125.308 -469.716 124.234 -469.705 123.128 C-469.312 120.5 -469.312 120.5 -467.989 118.691 C-466.312 117.5 -466.312 117.5 -463.062 116.562 C-459.312 117.5 -459.312 117.5 -457.477 119.832 C-455.615 122.999 -453.932 126.203 -452.312 129.5 C-451.847 130.44 -451.382 131.379 -450.902 132.348 C-450.074 134.027 -449.246 135.707 -448.418 137.387 C-445.521 142.925 -441.161 146.705 -436.312 150.5 C-436.037 150.723 -436.037 150.723 -434.645 151.852 C-423.813 159.647 -409.09 160.182 -396.231 160.076 C-393.879 160.063 -391.53 160.097 -389.178 160.135 C-369.929 160.231 -354.353 154.69 -340.344 141.258 C-338.312 139.5 -338.312 139.5 -336.312 139.5 C-336.065 138.943 -335.817 138.386 -335.562 137.812 C-334.084 135.078 -332.303 132.889 -330.312 130.5 C-329.931 130.036 -329.931 130.036 -328 127.688 C-326.058 125.362 -324.069 123.083 -322.062 120.812 C-319.345 117.721 -316.719 114.57 -314.125 111.375 C-310.587 107.023 -306.974 102.748 -303.312 98.5 C-297.414 91.65 -291.608 84.729 -286.051 77.598 C-285.333 76.679 -284.615 75.759 -283.875 74.812 C-283.556 74.398 -283.556 74.398 -281.941 72.301 C-281.404 71.707 -280.866 71.112 -280.312 70.5 C-279.653 70.5 -278.993 70.5 -278.312 70.5 C-278.178 70.098 -278.178 70.098 -277.5 68.062 C-277.108 67.217 -276.716 66.371 -276.312 65.5 C-275.322 65.17 -274.332 64.84 -273.312 64.5 C-272.982 63.675 -272.653 62.85 -272.312 62 C-271.982 61.175 -271.653 60.35 -271.312 59.5 C-270.322 59.17 -269.332 58.84 -268.312 58.5 C-267.982 57.675 -267.653 56.85 -267.312 56 C-266.982 55.175 -266.653 54.35 -266.312 53.5 C-265.322 53.17 -264.332 52.84 -263.312 52.5 C-263.168 52.108 -263.168 52.108 -262.438 50.125 C-260.993 46.755 -259.664 45.903 -256.312 44.5 C-253.625 44.625 -253.625 44.625 -251.312 45.5 C-249.045 48.901 -249.168 50.388 -249.783 54.329 C-250.676 57.989 -252.341 61.139 -254.125 64.438 C-254.857 65.84 -255.587 67.244 -256.316 68.648 C-256.665 69.313 -257.013 69.978 -257.372 70.663 C-258.53 72.925 -259.563 75.227 -260.562 77.562 C-261.694 80.19 -262.927 82.657 -264.375 85.125 C-265.97 87.903 -267.227 90.631 -268.467 93.573 C-269.922 96.889 -271.6 100.091 -273.25 103.312 C-275.449 107.651 -277.588 111.946 -279.312 116.5 C-281.251 121.597 -283.706 126.391 -286.171 131.248 C-289.139 137.107 -291.928 143.034 -294.672 149 C-296.486 152.87 -298.388 156.684 -300.312 160.5 C-256.837 160.289 -256.837 160.289 -240.312 147.5 C-239.685 147.04 -239.057 146.58 -238.41 146.105 C-233.902 142.558 -230.479 138.186 -226.922 133.715 C-223.348 129.253 -219.537 124.99 -215.742 120.715 C-213.505 118.167 -211.483 115.787 -209.742 112.867 C-207.973 109.938 -205.762 107.885 -203.312 105.5 C-201.539 103.473 -199.79 101.44 -198.062 99.375 C-197.582 98.804 -197.102 98.234 -196.607 97.646 C-193.684 94.165 -190.801 90.654 -187.938 87.125 C-183.833 82.075 -179.564 77.183 -175.275 72.291 C-170.89 67.254 -166.748 62.057 -162.739 56.716 C-161.641 55.276 -160.482 53.882 -159.312 52.5 C-158.652 52.5 -157.993 52.5 -157.312 52.5 C-157.178 52.108 -157.178 52.108 -156.5 50.125 C-155.312 47.5 -155.312 47.5 -152.312 45.5 C-152.003 44.881 -151.694 44.263 -151.375 43.625 C-150.092 41.059 -148.363 39.484 -146.312 37.5 C-145.983 36.84 -145.652 36.18 -145.312 35.5 C-144.652 35.5 -143.993 35.5 -143.312 35.5 C-143.048 34.929 -142.784 34.358 -142.512 33.77 C-140.41 29.793 -137.808 26.35 -134.312 23.5 C-130.5 23.312 -130.5 23.312 -127.312 24.5 C-125.312 27.5 -125.312 27.5 -125.477 30.254 C-126.436 33.981 -127.902 37.029 -129.688 40.438 C-131.732 44.366 -133.657 48.271 -135.37 52.354 C-137.41 56.999 -139.676 61.542 -141.892 66.105 C-143.471 69.355 -145.044 72.607 -146.617 75.859 C-146.775 76.186 -146.775 76.186 -147.575 77.838 C-150.38 83.634 -153.163 89.44 -155.938 95.25 C-159.28 102.25 -162.631 109.246 -165.993 116.236 C-170.83 126.295 -175.636 136.365 -180.312 146.5 C-180.565 147.046 -180.565 147.046 -181.841 149.811 C-183.332 153.04 -184.822 156.27 -186.312 159.5 C-160.771 160.234 -139.343 160.4 -118.837 142.982 C-115.842 140.071 -113.462 136.674 -111 133.312 C-106.594 127.406 -102.11 121.816 -97.02 116.48 C-95.368 114.564 -94.324 112.808 -93.312 110.5 C-92.652 110.5 -91.993 110.5 -91.312 110.5 C-91.199 110.24 -91.199 110.24 -90.625 108.922 C-88.837 105.623 -86.594 102.715 -84.312 99.75 C-83.861 99.148 -83.41 98.546 -82.945 97.926 C-81.784 96.411 -80.553 94.95 -79.312 93.5 C-78.652 93.5 -77.993 93.5 -77.312 93.5 C-77.127 92.84 -76.941 92.18 -76.75 91.5 C-75.122 88.102 -73.107 85.922 -70.586 83.156 C-66.994 78.959 -63.761 74.497 -60.489 70.048 C-59.992 69.376 -59.496 68.704 -58.984 68.012 C-58.542 67.408 -58.099 66.804 -57.644 66.182 C-56.312 64.5 -56.312 64.5 -54.771 62.968 C-53.312 61.5 -53.312 61.5 -51.312 58.5 C-50.652 58.5 -49.993 58.5 -49.312 58.5 C-49.127 57.84 -48.941 57.18 -48.75 56.5 C-47.027 52.904 -44.747 50.388 -42.066 47.465 C-40.312 45.5 -40.312 45.5 -38.715 43.254 C-38.483 42.965 -38.483 42.965 -37.312 41.5 C-36.652 41.5 -35.993 41.5 -35.312 41.5 C-35.207 40.924 -35.101 40.348 -34.992 39.754 C-34.211 37.164 -33.09 35.571 -31.438 33.438 C-30.924 32.766 -30.411 32.094 -29.883 31.402 C-28.312 29.5 -28.312 29.5 -26.879 28.091 C-25.331 26.519 -24.015 24.901 -22.684 23.145 C-22.206 22.523 -21.728 21.901 -21.236 21.26 C-20.238 19.952 -19.244 18.642 -18.252 17.33 C-16.984 15.684 -15.653 14.088 -14.312 12.5 C-13.652 12.5 -12.993 12.5 -12.312 12.5 C-12.106 11.819 -11.9 11.139 -11.688 10.438 C-9.183 5.088 -6.433 0.058 0 0 Z " fill="url(#brand-gradient)" transform="translate(1019.3125,-0.5)" />
<path d="M0 0 C0.714 -0.005 1.429 -0.011 2.165 -0.016 C4.565 -0.031 6.964 -0.023 9.364 -0.016 C11.082 -0.022 12.8 -0.029 14.518 -0.037 C19.19 -0.055 23.861 -0.054 28.533 -0.048 C32.429 -0.045 36.326 -0.051 40.223 -0.057 C49.414 -0.071 58.606 -0.07 67.797 -0.058 C77.286 -0.047 86.775 -0.061 96.264 -0.088 C104.405 -0.11 112.546 -0.117 120.687 -0.111 C125.552 -0.107 130.417 -0.11 135.282 -0.127 C139.856 -0.142 144.43 -0.138 149.005 -0.12 C150.685 -0.116 152.365 -0.119 154.045 -0.13 C156.337 -0.143 158.627 -0.131 160.918 -0.114 C162.201 -0.113 163.484 -0.113 164.806 -0.113 C168.577 0.474 169.726 1.407 172.022 4.388 C172.888 6.332 172.888 6.332 173.401 8.372 C173.599 9.135 173.796 9.897 174 10.683 C174.193 11.493 174.386 12.303 174.585 13.138 C174.796 13.979 175.007 14.82 175.225 15.687 C176.864 22.355 178.148 29.062 179.343 35.821 C180.103 39.811 181.148 43.652 182.272 47.552 C183.507 52.218 184.355 56.959 185.272 61.696 C185.935 64.958 186.69 68.166 187.522 71.388 C188.594 75.557 189.513 79.725 190.335 83.95 C191.967 92.3 193.825 100.596 195.683 108.898 C197.391 116.534 199.063 124.176 200.71 131.825 C202.142 138.463 203.644 145.066 205.343 151.642 C206.434 156.049 207.335 160.496 208.269 164.938 C209.167 169.048 210.197 173.115 211.276 177.181 C211.902 179.869 212.411 182.53 212.886 185.247 C214.214 192.705 215.947 200.07 217.647 207.45 C218.135 209.567 218.621 211.683 219.105 213.8 C219.539 215.697 219.975 217.593 220.412 219.489 C221.022 222.388 221.022 222.388 221.022 224.388 C247.092 224.388 273.162 224.388 300.022 224.388 C300.352 221.748 300.682 219.108 301.022 216.388 C301.389 214.541 301.787 212.7 302.222 210.868 C302.34 210.364 302.34 210.364 302.939 207.813 C303.193 206.744 303.448 205.676 303.71 204.575 C304.255 202.25 304.799 199.924 305.343 197.599 C305.482 197.003 305.482 197.003 306.188 193.988 C307.522 188.233 308.807 182.468 310.085 176.7 C310.332 175.585 310.58 174.471 310.835 173.322 C312.042 167.872 313.234 162.42 314.405 156.962 C314.515 156.45 314.515 156.45 315.073 153.857 C315.48 151.958 315.885 150.059 316.286 148.158 C317.265 143.593 318.356 139.09 319.608 134.591 C320.622 130.946 321.454 127.393 321.96 123.638 C322.778 118.352 324.07 113.292 325.495 108.14 C326.965 102.761 328.066 97.36 329.12 91.888 C330.952 82.567 333.13 73.313 335.207 64.044 C336.036 60.327 336.857 56.608 337.675 52.888 C337.943 51.673 338.21 50.458 338.486 49.207 C338.998 46.882 339.509 44.558 340.018 42.232 C340.955 37.989 341.906 33.792 343.108 29.614 C343.961 26.604 344.551 23.623 345.062 20.538 C346.17 13.853 347.295 7.198 351.022 1.388 C353.959 -0.08 356.562 0.251 359.842 0.241 C360.551 0.237 361.261 0.233 361.992 0.229 C364.381 0.218 366.77 0.214 369.159 0.211 C370.867 0.204 372.575 0.198 374.283 0.191 C378.932 0.173 383.58 0.163 388.229 0.155 C391.132 0.149 394.034 0.143 396.936 0.137 C406.011 0.118 415.086 0.104 424.16 0.095 C434.647 0.086 445.134 0.059 455.62 0.019 C463.719 -0.011 471.817 -0.026 479.916 -0.029 C484.756 -0.032 489.596 -0.041 494.437 -0.066 C498.989 -0.089 503.541 -0.093 508.093 -0.083 C509.765 -0.083 511.437 -0.089 513.109 -0.103 C515.39 -0.12 517.669 -0.113 519.949 -0.1 C521.226 -0.102 522.503 -0.105 523.818 -0.107 C527.022 0.388 527.022 0.388 529.472 2.199 C531.022 4.388 531.022 4.388 530.897 7.888 C529.714 12.621 528.406 15.004 525.022 18.388 C523.977 19.634 522.935 20.884 521.897 22.138 C515.453 29.515 507.519 34.643 499.022 39.388 C498.289 39.808 497.556 40.228 496.8 40.661 C476.524 51.582 451.304 55.922 428.522 56.95 C428.062 56.971 428.062 56.971 425.729 57.079 C412.169 57.628 398.59 57.474 385.022 57.388 C385.224 60.03 385.427 62.672 385.634 65.314 C385.811 67.584 385.984 69.855 386.153 72.125 C386.565 77.455 387.028 82.743 387.812 88.032 C387.93 88.879 388.049 89.727 388.171 90.599 C388.399 92.165 388.654 93.727 388.94 95.283 C389.366 98.311 389.438 100.665 387.89 103.355 C385.028 106.865 382.034 109.259 378.022 111.388 C359.472 124.81 347.431 141.802 338.022 162.388 C337.625 163.232 337.228 164.076 336.819 164.946 C325.264 191.405 325.6 220.958 326.122 249.22 C326.206 253.803 326.261 258.386 326.308 262.97 C326.323 263.565 326.323 263.565 326.399 266.58 C326.404 267.13 326.404 267.13 326.429 269.914 C326.447 270.878 326.465 271.842 326.483 272.835 C325.873 276.213 324.658 277.237 322.022 279.388 C319.602 279.888 319.602 279.888 316.854 279.889 C315.81 279.899 314.765 279.909 313.689 279.919 C312.549 279.909 311.408 279.899 310.233 279.889 C309.028 279.895 307.823 279.9 306.581 279.906 C303.279 279.916 299.978 279.909 296.676 279.892 C293.221 279.878 289.766 279.885 286.311 279.888 C280.509 279.891 274.708 279.877 268.907 279.854 C262.198 279.828 255.49 279.826 248.781 279.838 C242.328 279.848 235.875 279.842 229.422 279.828 C226.675 279.822 223.928 279.822 221.182 279.827 C217.348 279.833 213.516 279.814 209.682 279.792 C209.111 279.794 209.111 279.794 206.221 279.805 C205.179 279.795 204.137 279.786 203.064 279.775 C202.157 279.773 201.251 279.771 200.317 279.768 C197.566 279.312 196.673 278.599 195.022 276.388 C194.675 274.138 194.675 274.138 194.714 271.471 C194.717 270.969 194.717 270.969 194.734 268.43 C194.756 267.34 194.777 266.249 194.8 265.126 C194.809 263.989 194.818 262.851 194.827 261.679 C194.857 258.019 194.907 254.36 194.96 250.7 C195.571 205.463 195.571 205.463 190.397 185.575 C190.269 185.063 190.269 185.063 189.62 182.469 C185.166 165.501 177.776 149.499 167.343 135.384 C166.022 133.388 166.022 133.388 166.022 131.388 C165.032 131.058 164.042 130.728 163.022 130.388 C161.69 128.962 161.69 128.962 160.21 127.075 C153.05 118.638 144.031 111.228 134.597 105.474 C133.022 104.388 133.022 104.388 132.022 102.388 C131.913 87.359 134.858 72.222 137.022 57.388 C136.578 57.39 136.578 57.39 134.326 57.404 C86.744 57.646 86.744 57.646 67.267 53.825 C64.964 53.376 62.656 52.962 60.347 52.548 C44.154 49.527 28.847 44.498 15.022 35.388 C14.536 35.079 14.536 35.079 12.077 33.517 C8.807 31.237 5.874 28.72 2.96 26.013 C2.457 25.556 1.953 25.1 1.435 24.63 C-9.622 14.446 -9.622 14.446 -10.29 6.825 C-9.978 3.388 -9.978 3.388 -8.894 1.697 C-5.975 -0.298 -3.508 0.007 0 0 Z " fill="url(#brand-gradient)" transform="translate(250.97752380371094,238.61231994628906)" />
<path d="M0 0 C0 8.25 0 16.5 0 25 C9.375 24.938 9.375 24.938 12.326 24.91 C12.709 24.909 12.709 24.909 14.648 24.902 C15.434 24.897 16.219 24.892 17.029 24.886 C19 25 19 25 21 26 C21 27.98 21 29.96 21 32 C14.732 35.134 7.008 33 0 33 C0 55.44 0 77.88 0 101 C10 98 10 98 13 95 C13.66 95 14.32 95 15 95 C15.289 94.072 15.577 93.144 15.875 92.188 C17 89 17 89 19 86 C21.5 85.688 21.5 85.688 24 86 C26 88 26 88 26.438 90.188 C25.652 95.24 22.757 98.537 18.945 101.711 C8.605 109.045 -3.003 109.195 -15.234 107.57 C-21.855 106.089 -26.17 103.633 -30 98 C-36.16 85.82 -34.439 71.4 -34.25 58.188 C-34.23 55.742 -34.212 53.296 -34.195 50.85 C-34.152 44.899 -34.085 38.95 -34 33 C-36.97 33 -39.94 33 -43 33 C-43.33 34.32 -43.66 35.64 -44 37 C-46.385 38.797 -47.606 39.041 -50.586 38.73 C-51.506 38.551 -52.427 38.372 -53.375 38.188 C-58.385 37.669 -58.385 37.669 -60.84 38.992 C-70.352 49.135 -72.052 63.322 -72.316 76.531 C-72.337 77.408 -72.358 78.284 -72.379 79.187 C-72.444 81.958 -72.503 84.729 -72.562 87.5 C-72.606 89.391 -72.649 91.281 -72.693 93.172 C-72.801 97.781 -72.9 102.391 -73 107 C-84.22 107 -95.44 107 -107 107 C-107.023 96.456 -107.041 85.912 -107.052 75.369 C-107.057 70.473 -107.064 65.578 -107.075 60.682 C-107.086 55.962 -107.092 51.242 -107.095 46.522 C-107.097 44.717 -107.1 42.912 -107.106 41.107 C-107.113 38.587 -107.114 36.068 -107.114 33.549 C-107.117 32.795 -107.121 32.041 -107.124 31.265 C-107.114 26.114 -107.114 26.114 -106 25 C-103.552 24.912 -101.132 24.885 -98.684 24.902 C-97.953 24.904 -97.221 24.905 -96.468 24.907 C-94.125 24.912 -91.781 24.925 -89.438 24.938 C-87.852 24.943 -86.267 24.947 -84.682 24.951 C-80.788 24.961 -76.894 24.981 -73 25 C-72.835 27.97 -72.835 27.97 -72 43 C-71.34 41.35 -70.68 39.7 -70 38 C-68.449 35.684 -68.449 35.684 -66.688 33.438 C-66.401 33.066 -66.401 33.066 -64.949 31.184 C-64.306 30.463 -63.663 29.742 -63 29 C-62.676 28.627 -62.676 28.627 -61.039 26.738 C-56.155 23.945 -51.2 24.582 -45.688 24.75 C-45.126 24.759 -45.126 24.759 -42.287 24.805 C-39.524 24.852 -36.762 24.923 -34 25 C-34 21.37 -34 17.74 -34 14 C-27.564 10.683 -21.153 7.541 -14.391 4.945 C-11.169 3.671 -8.042 2.212 -4.91 0.734 C-3 0 -3 0 0 0 Z " fill="url(#brand-gradient)" transform="translate(731,565)" />
<path d="M0 0 C1.293 0.005 2.587 0.01 3.92 0.016 C4.263 0.017 4.263 0.017 6 0.02 C8.201 0.026 10.402 0.038 12.603 0.051 C14.092 0.056 15.581 0.061 17.07 0.065 C20.727 0.076 24.384 0.093 28.041 0.114 C28.206 0.609 28.206 0.609 29.041 3.114 C30.116 2.628 31.191 2.142 32.299 1.641 C37.793 -0.41 43.11 -0.364 48.916 -0.324 C49.941 -0.344 50.965 -0.364 52.021 -0.385 C62.702 -0.378 72.76 3.323 80.693 10.637 C88.711 19.328 91.245 28.695 91.353 40.176 C91.368 40.676 91.368 40.676 91.441 43.205 C91.522 52.833 88.829 60.396 83.041 68.114 C82.381 69.083 81.721 70.052 81.041 71.051 C75.646 77.342 67.008 81.724 58.861 82.903 C47.924 83.721 38.635 83.292 28.041 80.114 C28.041 88.034 28.041 95.954 28.041 104.114 C17.481 104.114 6.921 104.114 -3.959 104.114 C-3.982 90.701 -4 77.289 -4.011 63.877 C-4.016 57.65 -4.023 51.422 -4.035 45.195 C-4.045 39.191 -4.052 33.187 -4.054 27.183 C-4.056 24.887 -4.06 22.591 -4.065 20.294 C-4.072 17.09 -4.073 13.886 -4.073 10.682 C-4.076 9.723 -4.08 8.763 -4.084 7.774 C-4.082 6.906 -4.081 6.038 -4.079 5.144 C-4.08 4.385 -4.081 3.627 -4.082 2.845 C-3.865 -0.207 -3.09 0.119 0 0 Z M37.228 7.989 C36.335 8.337 35.442 8.685 34.521 9.043 C32.327 9.99 30.179 11.045 28.041 12.114 C28.041 31.254 28.041 50.394 28.041 70.114 C38.041 75.114 38.041 75.114 52.041 76.114 C52.041 53.014 52.041 29.914 52.041 6.114 C41.902 6.114 41.902 6.114 37.228 7.989 Z " fill="url(#brand-gradient)" transform="translate(417.959228515625,589.886474609375)" />
<path d="M0 0 C0.928 0.887 1.856 1.774 2.812 2.688 C3.173 3.069 3.173 3.069 5 5 C5.641 5.592 6.281 6.183 6.941 6.793 C13.043 13.334 15.941 22.273 17 31 C17.133 31.911 17.266 32.823 17.402 33.762 C19.268 49.459 15.881 65.052 6.625 77.91 C-1.268 87.669 -13.353 95.003 -25.824 96.754 C-42.721 98.063 -55.911 96.267 -71 88 C-71 87.34 -71 86.68 -71 86 C-71.557 85.773 -72.114 85.546 -72.688 85.312 C-75.647 83.633 -77.661 81.459 -80 79 C-80.483 78.555 -80.967 78.111 -81.465 77.652 C-90.511 67.915 -93.36 52.736 -93.223 39.879 C-92.778 34.126 -91.433 28.577 -90 23 C-89.807 22.246 -89.613 21.492 -89.414 20.715 C-86.37 11.089 -78.923 2.966 -71 -3 C-70.41 -3.46 -69.819 -3.92 -69.211 -4.395 C-50.231 -17.761 -16.827 -16.266 0 0 Z M-44 -5 C-44 26.02 -44 57.04 -44 89 C-37.663 92.168 -27.521 90.05 -21 88 C-9.323 83.18 0.164 76.54 5.449 64.773 C11.218 50.127 12.232 35.71 6 21 C4.548 18.138 2.928 15.563 1 13 C0.598 12.459 0.196 11.917 -0.219 11.359 C-7.665 1.908 -17.156 -3.485 -29 -5 C-33.95 -5 -38.9 -5 -44 -5 Z " fill="url(#brand-gradient)" transform="translate(193,576)" />
<path d="M0 0 C2.375 -0.125 2.375 -0.125 5 0 C5.33 0.33 5.33 0.33 7 2 C6.91 5.346 6.162 6.808 4 9.375 C-6.637 18.683 -6.637 18.683 -10.215 19.516 C-10.804 19.675 -11.393 19.835 -12 20 C-12.165 20.495 -12.165 20.495 -13 23 C-13.33 23.165 -13.33 23.165 -15 24 C-13.454 28.867 -11.591 33.544 -9.625 38.25 C-8.994 39.771 -8.364 41.292 -7.734 42.812 C-7.433 43.538 -7.132 44.264 -6.822 45.012 C-4.366 50.951 -2.027 56.928 0.25 62.938 C2.415 68.588 4.714 74.174 7.062 79.75 C7.391 80.53 7.719 81.31 8.058 82.113 C13.888 95.885 13.888 95.885 16.102 100.097 C17.258 102.547 17.282 104.322 17 107 C16.34 107.66 15.68 108.32 15 109 C12.062 108.938 12.062 108.938 9 108 C6.528 104.534 5.164 100.952 3.812 96.938 C-0.512 84.525 -5.371 72.276 -10.922 60.359 C-13.273 55.213 -15.284 49.927 -17.254 44.625 C-17.686 43.47 -18.118 42.315 -18.562 41.125 C-18.956 40.055 -19.349 38.985 -19.754 37.883 C-20.908 35.214 -22.148 33.223 -24 31 C-26.438 31.812 -26.438 31.812 -29 33 C-29.33 33.99 -29.66 34.98 -30 36 C-30.995 36.584 -31.989 37.168 -33.014 37.769 C-36 40 -36 40 -36.759 43.063 C-36.762 43.662 -36.762 43.662 -36.773 46.696 C-36.784 47.36 -36.794 48.024 -36.805 48.708 C-36.833 50.895 -36.819 53.079 -36.805 55.266 C-36.816 56.785 -36.83 58.303 -36.846 59.822 C-36.882 63.814 -36.883 67.805 -36.876 71.797 C-36.874 76.589 -36.918 81.382 -36.954 86.174 C-37.003 93.45 -36.996 100.724 -37 108 C-50.2 108 -63.4 108 -77 108 C-77 72.69 -77 37.38 -77 1 C-63.8 1 -50.6 1 -37 1 C-36.67 10.24 -36.34 19.48 -36 29 C-34.515 27.845 -34.515 27.845 -27 22 C-25.216 20.697 -23.426 19.403 -21.625 18.125 C-8.462 8.614 -8.462 8.614 -3.312 3.238 C-2 2 -2 2 0 2 C0 1.34 0 0.68 0 0 Z " fill="url(#brand-gradient)" transform="translate(307,564)" />
<path d="M0 0 C1.45 -0.011 2.899 -0.032 4.349 -0.062 C13.491 -0.249 21.185 0.39 29.631 4.295 C30.703 4.728 31.776 5.161 32.881 5.608 C38.627 9.134 43.323 13.885 45.631 20.295 C46.665 27.474 46.762 34.524 46.728 41.768 C46.727 42.931 46.725 44.095 46.724 45.294 C46.718 48.982 46.706 52.67 46.693 56.358 C46.688 58.87 46.684 61.382 46.679 63.895 C46.669 70.028 46.65 76.162 46.631 82.295 C35.411 82.295 24.191 82.295 12.631 82.295 C12.301 81.305 11.971 80.315 11.631 79.295 C10.579 79.77 9.527 80.244 8.443 80.733 C-1.287 85.121 -13.948 84.466 -23.94 81.264 C-31.265 78.343 -36.529 74.293 -40.369 67.295 C-43.551 58.82 -43.37 49.181 -40.451 40.678 C-36.229 31.379 -28.593 27.78 -19.369 24.295 C-14.975 23.02 -10.728 23.073 -6.182 23.045 C-5.369 23.025 -4.556 23.004 -3.719 22.983 C2.318 22.944 6.991 24.141 12.631 26.295 C12.631 20.355 12.631 14.415 12.631 8.295 C1.307 6.408 -10.112 6.095 -20.205 12.451 C-20.693 12.812 -21.18 13.173 -21.682 13.545 C-25.082 15.759 -27.393 15.613 -31.369 15.295 C-32.182 13.108 -32.182 13.108 -32.369 10.295 C-25.188 0.142 -11.194 0.061 0 0 Z M-6.369 30.295 C-6.369 45.475 -6.369 60.655 -6.369 76.295 C3.631 75.295 3.631 75.295 12.631 70.295 C12.631 58.415 12.631 46.535 12.631 34.295 C1.631 30.295 1.631 30.295 -6.369 30.295 Z " fill="url(#brand-gradient)" transform="translate(804.369384765625,589.704833984375)" />
<path d="M0 0 C5.355 3.272 9.9 7.144 13.875 12 C14.394 12.626 14.914 13.253 15.449 13.898 C17.098 16.329 18.025 18.669 19 21.438 C19.333 22.364 19.665 23.291 20.008 24.246 C23.795 36.272 22.099 47.852 16.859 59.199 C11.687 68.662 3.283 74.781 -6.48 79.023 C-19.313 82.449 -35.141 80.651 -46.562 74.125 C-55.014 68.581 -60.904 60.664 -64.125 51 C-65.803 35.788 -65.943 23.074 -56.148 10.453 C-42.743 -4.074 -17.946 -8.63 0 0 Z M-23.125 3 C-23.125 26.1 -23.125 49.2 -23.125 73 C-10.595 72.036 -2.164 70.418 6.398 61.395 C12.461 54.223 14.599 44.926 14.211 35.629 C12.846 24.947 9.203 16.975 0.875 10 C-6.763 5.063 -14.018 3 -23.125 3 Z " fill="url(#brand-gradient)" transform="translate(585.125,593)" />
<path d="M0 0 C1.142 -0.028 2.284 -0.055 3.461 -0.084 C11.619 -0.061 20.574 1.636 26.625 7.688 C26.666 9.687 26.668 11.688 26.625 13.688 C24.625 14.5 24.625 14.5 21.625 14.688 C19.495 13.594 17.573 12.298 15.582 10.969 C9.342 6.883 2.81 7.478 -4.375 7.688 C-5.035 9.337 -5.695 10.987 -6.375 12.688 C-5.715 12.688 -5.055 12.688 -4.375 12.688 C-4.262 13.079 -4.262 13.079 -3.688 15.062 C-2.375 17.688 -2.375 17.688 -0.156 18.559 C3.306 19.964 5.602 21.948 8.438 24.375 C8.7 24.599 8.7 24.599 10.028 25.732 C11.564 27.045 13.095 28.366 14.625 29.688 C15.4 30.337 16.174 30.987 16.973 31.656 C23.9 37.529 30.877 43.762 31.906 53.293 C32.111 59.47 31.168 64.072 28.625 69.688 C27.965 69.688 27.305 69.688 26.625 69.688 C26.549 70.274 26.473 70.861 26.395 71.465 C24.776 76.141 19.758 78.397 15.625 80.688 C3.226 85.819 -13.936 85.546 -26.375 80.688 C-29.321 79.245 -30.944 78.01 -33.375 75.688 C-34.312 72.375 -34.312 72.375 -34.375 69.688 C-32.215 68.48 -32.215 68.48 -29.375 67.688 C-26.691 68.988 -26.691 68.988 -23.938 71 C-17.761 75.472 -12.76 75.834 -5.25 75.875 C-4.051 75.889 -2.852 75.903 -1.617 75.918 C1.428 75.702 3.078 75.29 5.625 73.688 C5.102 70.925 4.516 68.361 3.625 65.688 C1.062 64.5 1.062 64.5 -1.375 63.688 C-1.375 63.028 -1.375 62.367 -1.375 61.688 C-1.938 61.432 -2.502 61.177 -3.082 60.914 C-7.618 58.488 -11.433 54.964 -15.375 51.688 C-16.181 51.02 -16.986 50.352 -17.816 49.664 C-26.253 42.44 -32.555 35.065 -33.812 23.75 C-33.531 17.522 -31.008 12.398 -26.75 7.938 C-25.652 7.148 -24.524 6.401 -23.375 5.688 C-23.037 5.475 -23.037 5.475 -21.328 4.398 C-14.21 0.398 -8.068 -0.104 0 0 Z " fill="url(#brand-gradient)" transform="translate(366.375,589.3125)" />
<path d="M0 0 C1.181 -0.033 2.363 -0.066 3.58 -0.1 C12.151 -0.152 18.93 1.258 25.567 6.94 C26.812 8.438 26.812 8.438 27.062 11.062 C26.812 13.438 26.812 13.438 25.812 14.438 C21.181 15.28 18.532 13.248 14.875 10.727 C10.366 7.908 6.804 7.196 1.5 7.312 C0.431 7.331 -0.637 7.349 -1.738 7.367 C-2.142 7.379 -2.142 7.379 -4.188 7.438 C-4.859 9.203 -4.859 9.203 -5.188 11.438 C-1.79 17.472 4.346 21.47 9.887 25.355 C12.962 27.544 15.928 29.828 18.875 32.188 C19.773 32.904 20.672 33.621 21.598 34.359 C23.745 36.374 24.612 37.812 25.812 40.438 C26.313 40.921 26.813 41.404 27.328 41.902 C30.808 45.501 31.753 51.21 31.883 56.07 C31.312 63.538 29.217 70.033 23.812 75.438 C11.533 84.495 -3.053 84.992 -17.77 82.938 C-23.921 81.576 -28.51 79.699 -33.188 75.438 C-34.168 72.742 -34.372 71.881 -33.25 69.188 C-32.899 68.61 -32.549 68.033 -32.188 67.438 C-27.279 68.128 -24.47 70.157 -20.566 73.062 C-15.78 75.829 -10.47 75.596 -5.062 75.625 C-3.864 75.639 -2.665 75.653 -1.43 75.668 C1.615 75.452 3.266 75.04 5.812 73.438 C5.348 68.861 3.897 67.134 0.438 64.188 C-0.462 63.414 -1.362 62.641 -2.289 61.844 C-3.246 61.05 -4.202 60.256 -5.188 59.438 C-6.144 58.643 -7.1 57.849 -8.086 57.031 C-10.776 54.82 -13.478 52.625 -16.188 50.438 C-18.214 48.796 -20.207 47.135 -22.188 45.438 C-22.6 45.097 -22.6 45.097 -24.688 43.375 C-30.375 36.692 -34.341 28.966 -33.762 20.039 C-32.267 13.268 -28.208 8.865 -22.625 5 C-15.099 0.291 -8.729 0.042 0 0 Z " fill="url(#brand-gradient)" transform="translate(901.1875,589.5625)" />
</svg>